<?xml version="1.0" encoding="UTF-8"?>
<svg xmlns="http://www.w3.org/2000/svg" xmlns:xlink="http://www.w3.org/1999/xlink" version="1.1" viewBox="-10 -10 300 300">
<!--Generator: Sketch 51.1 (57501) - http://www.bohemiancoding.com/sketch-->
    <title>
        Path 3
    </title>
    <desc>
        Created with Sketch.
    </desc>
    <defs/>
    <path id="Path-3" fill="none" stroke="#979797" stroke-dasharray="1000" d="M1.71875,0.82421875 C1.71875,47.8606771 0.656725688,94.9091265 1.71875,141.933594 C1.83909705,147.262338 1.38669926,153.8634 5.2578125,157.527344 C9.44829641,161.493566 16.4603039,160.356869 22.15625,161.277344 C30.2306311,162.582178 38.3455338,163.905504 46.5195312,164.195312 C65.8199043,164.879606 85.1703628,165.19385 104.457031,164.195312 C115.270883,163.635442 125.994763,161.691287 136.605469,159.53125 C148.363694,157.137611 154.143948,150.469243 162.214844,141.09375 C184.402727,115.319368 150.364714,82.907808 145.5,56.6875 C142.882423,42.5790312 144.460953,14.2347827 132.886719,2.51953125 C128.392362,-2.02958367 75.8887064,2.83908092 72.3398437,4.2578125 C59.3785163,9.43937239 70.0029434,38.0607172 48.5390625,36.2890625 C32.3437772,34.952284 17.4477637,15.7781813 7.9609375,6.421875 L1.71875,0.82421875 Z">
        <animate fill="freeze" attributeName="stroke-dashoffset" attributeType="XML" begin="0s" dur="5s" from="1000" repeatCount="indefinite" to="0"/>
    </path>
</svg>
